# xmcd
#
# Track frame offsets: 
#        150
#        10870
#        24450
#        38695
#        48070
#        61760
#        75845
#        87445
#        96625
#        113795
#        125865
#        138080
#        149580
#        160640
#        173155
#        187345
#        196210
#        212705
#        227625
#        239690
#
# Disc length: 3367 seconds
#
# Revision: 0
# Processed by: cddbd v1.5PL3 Copyright (c) Steve Scherf et al.
# Submitted via: ExactAudioCopy v0.95a5
#
DISCID=0f0d2514
DTITLE=Jack Greene and Jeannie Seely - 20 All Time Greatest Hits
DYEAR=1900
DGENRE=Country
TTITLE0=There Goes My Everything
TTITLE1=Statue Of A Fool
TTITLE2=Don't Touch Me
TTITLE3=Wish I Didn't Have To Miss You
TTITLE4=You Are My Treasure
TTITLE5=Can I Sleep In Your Arms
TTITLE6=All The Time
TTITLE7=Much Oblige
TTITLE8=What Locks The Door
TTITLE9=Beautiful Lady
TTITLE10=I'll Love You More
TTITLE11=Until My Dreams Come True
TTITLE12=Back In The Arms Of Love
TTITLE13=I Need Somebody Bad
TTITLE14=We Don't Want The World
TTITLE15=Love Takes Care Of Me
TTITLE16=The Last Letter
TTITLE17=It's Only Love
TTITLE18=Wanting You But Never Having You
TTITLE19=California Turnarounds
EXTD=
EXTT0=
EXTT1=
EXTT2=
EXTT3=
EXTT4=
EXTT5=
EXTT6=
EXTT7=
EXTT8=
EXTT9=
EXTT10=
EXTT11=
EXTT12=
EXTT13=
EXTT14=
EXTT15=
EXTT16=
EXTT17=
EXTT18=
EXTT19=
PLAYORDER=
